<svg version="1.2" xmlns="http://www.w3.org/2000/svg" viewBox="0 0 380 480" width="380" height="480">
	<title>standing-18-svg</title>
	<style>
		.s0 { fill: #b28b67 } 
		.s1 { fill: #fff2e9 } 
		.s2 { fill: #997659 } 
		.s3 { fill: #9b8816 } 
		.s4 { fill: #260c1a } 
		.s5 { fill: #eb5e55 } 
		.s6 { fill: #f98948 } 
		.s7 { opacity: .1;fill: #000000 } 
		.s8 { opacity: .2;fill: #ffffff } 
	</style>
	<g id="humaaans/standing-18">
		<g id="humaaan-2">
			<g id="Head/Front/Airy">
				<g id="Head">
					<path id="Layer" fill-rule="evenodd" class="s0" d="m184.3 79.9c-5-5.8-8.4-13-7.8-21 1.6-23.2 33.8-18.1 40.1-6.4 6.3 11.7 5.6 41.4-2.6 43.4-3.2 0.9-10.1-1.2-17.1-5.4l4.4 31.2h-26z"/>
				</g>
				<path id="hair" fill-rule="evenodd" class="s1" d="m201.8 39c-3.4-0.6-12.6-1-14.3-1-1.1 0-2.3 0.3-3-0.7-0.5-0.8-0.3-2.2-0.4-3.2-0.2-1.1-0.5-2.1-0.8-3.2-0.7-3.1-1.8-6.1-3.4-8.8-3-5.2-7.3-9.2-12.8-11.6-6.1-2.6-12.9-3.2-19.4-2.7-7 0.6-13.3 2.9-19.9 5.1-6.3 2-12.9 2.8-19.4 1.8-6.6-1-11.6-4.6-17.2-8-5.7-3.5-12.2-5.7-19-5.2-6.3 0.5-12.1 3.1-17.3 6.6-4.9 3.2-8.9 7.1-11.2 12.6-2.4 5.9-2.4 12.4 1.6 17.7 5.8 7.6 16.6 9.5 25.6 9.3 5.2-0.1 10.3-1 15.3-2.8 6.5-2.3 12.2-6.2 18.3-9.3 2.9-1.5 5.8-2.7 9-3.6 3-0.9 6-1.3 8.7 0.6 2.9 1.9 5.5 3.8 8.8 5 3.2 1.2 6.5 1.8 9.9 1.8 6.6-0.1 13.1-2.1 19.5-3.5 5.2-1.1 10.8-2.2 16.1-1.2 2.2 0.5 5.5 1.4 6.3 3.7-13.5 2.5-18.8 19.2-15 31.4 2 6.6 14.4 14.3 19.2 10.9 3-2.2 1.2-5.1 0-7-2.3-3.7-3.1-8.4 1.1-10.9 3.7-2.2 7.5 3 7.6 3 1-0.1 9.7-5 15.7-12.1 5.8 0.3 6.7-3.6 5.3-6.8-1.4-3.1-10.2-7.1-14.9-7.9z"/>
			</g>
			<g id="Bottom/Standing/Jogging">
				<path id="Leg" class="s2" d="m168.8 211.6l80.5 134.6 60.4 113.7h13l-101.2-248.3z"/>
				<g id="Accessories/Shoe/Flat-Sneaker">
					<path id="shoe" fill-rule="evenodd" class="s3" d="m301.7 454.7q-1.8 4.8-1.8 7.2 0 3 1 8.6 3.4 0 61.1 0 2.3-7.9-2.8-8.5-5.1-0.7-8.5-1.2l-28.4-12.6c-0.6-0.3-1.2 0-1.4 0.5q0 0-0.1 0.1l-1.8 4.4q-4.7 2.2-7.7 2.2-2.4 0-6.7-1.9c-1-0.5-2.3-0.1-2.8 1q-0.1 0.1-0.1 0.2z"/>
				</g>
				<path id="Pant" fill-rule="evenodd" class="s4" d="m292.9 441.7l25.1-7.6q-16.5-49.2-40.4-108.4-23.9-59.1-51.4-114.1h-70.8q30.5 69.6 64.7 126.4 34.2 56.9 72.8 103.7z"/>
				<path id="Leg" fill-rule="evenodd" class="s0" d="m163.5 211.6c-7.6 47.3-22.2 107.7-23.6 109.6q-1.4 1.8-99.6 33.3l2.8 11.5q117.1-16.9 123.4-26.2c6.3-9.4 37.8-83 50-128.2z"/>
				<path id="Pant" fill-rule="evenodd" class="s4" d="m63.3 344.6l5 18.5q87.6 7.6 107.3-11.1 19.7-18.8 45-140.4h-67.5q-16 99.6-17.9 103.7-1.9 4.2-71.9 29.3z"/>
				<g id="Accessories/Shoe/Flat-Sneaker">
					<path id="shoe" fill-rule="evenodd" class="s3" d="m43.5 349.7q-5.1-0.9-7.4-0.5-2.9 0.5-8.3 2.5 0.6 3.3 10.6 60.1 8.2 1 7.9-4.2-0.2-5.1-0.3-8.6l7.5-30.1c0.1-0.6-0.2-1.2-0.8-1.3q0 0 0 0l-4.7-1.1q-3-4.3-3.5-7.2-0.4-2.4 0.7-6.9c0.3-1.1-0.3-2.3-1.5-2.6q-0.1 0-0.2-0.1z"/>
				</g>
			</g>
			<g id="Body/Jacket">
				<path id="Skin" fill-rule="evenodd" class="s0" d="m251.8 212l31.9 18.8q12 18.9 14.1 16.4c2.1-2.6-1.2-5.6-0.1-7.6 1.2-1.9 7.6-0.8 13.6 0.5 6 1.3 4.6-1.6 3.4-3.2q-8.6-6.9-22-12.6l-30.7-29.9zm-140 55.8c-1.5 3.1-13 12.7-21 18.1-3.2 2.2-1.9 5-0.6 5.8 9.8 6.1 16.3-1.1 24.8-5.1 9.3-4.3 8.5 7.9 15.9 4.6-2.3-5.1-7.6-14.5-5.1-20.7q1.7-4.2 22.6-71.8l-22.6-0.1q-10.8 62.7-14 69.2z"/>
				<path id="Coat-Back" fill-rule="evenodd" class="s5" d="m190.2 103.6l9.3-1.6q24.2 60.4 84.5 109.8l-30.4 36.9c-40.2-46.9-64.9-95.2-63.4-145.1z"/>
				<path id="Shirt" fill-rule="evenodd" class="s6" d="m149.3 221.3h83.4q-29-70.5-29-119.7l-25.1-3.8c-19.8 31.8-25.4 71-29.3 123.5z"/>
				<path id="Coat-Front" fill-rule="evenodd" class="s5" d="m178 97.9q0.1-0.1 0.1-0.1h1.6q2.9 0.1 9 0.4l6.1 17.4q0.9 31.7 11.2 128h-54.6q0.2 6.7 0.7 13.5h-40.7q9.1-102.9 66.6-159.3z"/>
				<path id="Shade" fill-rule="evenodd" class="s7" d="m155 186.9q2.3 41.5 11.6 57.2h-15.2q-1-29.9 3.6-57.2z"/>
				<path id="Light" class="s8" d="m163.5 210.5l27-12.5v12.5z"/>
			</g>
		</g>
	</g>
</svg>